<svg width="46" height="64" viewBox="0 0 46 64" fill="none" xmlns="http://www.w3.org/2000/svg">
<path d="M45.3093 16.6863L29.2095 0.686456C29.0069 0.463366 28.7581 0.28655 28.4802 0.168176C28.2023 0.0498027 27.9018 -0.00731657 27.5995 0.00074951H4.59992C3.37995 0.00074951 2.20994 0.482375 1.34729 1.33967C0.484633 2.19697 0 3.35972 0 4.57212V59.4286C0 60.641 0.484633 61.8038 1.34729 62.6611C2.20994 63.5184 3.37995 64 4.59992 64H41.3993C42.6193 64 43.7893 63.5184 44.652 62.6611C45.5146 61.8038 45.9992 60.641 45.9992 59.4286V18.2862C46.0074 17.9859 45.9499 17.6873 45.8308 17.4111C45.7117 17.1349 45.5337 16.8876 45.3093 16.6863ZM27.5995 7.89003C27.5995 7.00062 28.6736 6.55378 29.3045 7.18072L38.7594 16.5769C39.3923 17.206 38.9469 18.2862 38.0545 18.2862H28.5995C28.0473 18.2862 27.5995 17.8385 27.5995 17.2862V7.89003ZM41.3993 58.4286C41.3993 58.9809 40.9516 59.4286 40.3993 59.4286H5.59992C5.04764 59.4286 4.59992 58.9809 4.59992 58.4286V5.57213C4.59992 5.01984 5.04764 4.57212 5.59992 4.57212H21.9996C22.5519 4.57212 22.9996 5.01984 22.9996 5.57212V18.2862C22.9996 19.4987 23.4843 20.6614 24.3469 21.5187C25.2096 22.376 26.3796 22.8576 27.5995 22.8576H40.3993C40.9516 22.8576 41.3993 23.3053 41.3993 23.8576V58.4286Z" fill="white"/>
<path d="M34.4994 39.8574C34.4994 39.3052 34.0517 38.8574 33.4994 38.8574H26.2996C25.7473 38.8574 25.2996 38.4097 25.2996 37.8574V30.7147C25.2996 30.1624 24.8519 29.7147 24.2996 29.7147H21.6997C21.1474 29.7147 20.6997 30.1624 20.6997 30.7147V37.8574C20.6997 38.4097 20.252 38.8574 19.6997 38.8574H12.4998C11.9475 38.8574 11.4998 39.3052 11.4998 39.8574V42.4288C11.4998 42.9811 11.9475 43.4288 12.4998 43.4288H19.6997C20.252 43.4288 20.6997 43.8765 20.6997 44.4288V51.5716C20.6997 52.1238 21.1474 52.5716 21.6997 52.5716H24.2996C24.8519 52.5716 25.2996 52.1238 25.2996 51.5716V44.4288C25.2996 43.8765 25.7473 43.4288 26.2996 43.4288H33.4994C34.0517 43.4288 34.4994 42.9811 34.4994 42.4288V39.8574Z" fill="white"/>
</svg>
